<svg width="290" height="61" viewBox="0 0 290 61" fill="none" xmlns="http://www.w3.org/2000/svg">
<path d="M89.5713 47.9547V12.5062H98.0789L108.764 34.3324L119.297 12.5062H127.754V47.9547H120.665V24.5081L111.499 42.9919H105.878L96.661 24.5081V47.9547H89.5713Z" fill="white"/>
<path d="M146.828 48.5624C144.262 48.5624 141.983 48.0222 139.992 46.9419C138.033 45.8278 136.497 44.2917 135.383 42.3336C134.269 40.3417 133.712 38.046 133.712 35.4465C133.712 32.8131 134.252 30.4837 135.333 28.4581C136.447 26.3987 137.983 24.7782 139.941 23.5966C141.933 22.4149 144.245 21.8241 146.879 21.8241C149.411 21.8241 151.622 22.3812 153.513 23.4953C155.437 24.6094 156.922 26.1117 157.969 28.0023C159.049 29.8929 159.59 32.0704 159.59 34.5349C159.59 34.8725 159.573 35.2439 159.539 35.649C159.539 36.0542 159.505 36.493 159.438 36.9657H138.776V32.6612H152.399C152.297 31.1082 151.723 29.876 150.677 28.9645C149.664 28.0192 148.398 27.5465 146.879 27.5465C145.731 27.5465 144.684 27.8166 143.739 28.3568C142.794 28.8969 142.051 29.6903 141.511 30.7369C140.971 31.7835 140.701 33.117 140.701 34.7375V36.2061C140.701 37.5227 140.954 38.6875 141.46 39.7003C141.967 40.6793 142.676 41.4389 143.587 41.9791C144.499 42.5193 145.562 42.7894 146.777 42.7894C147.993 42.7894 148.989 42.5362 149.765 42.0297C150.575 41.5233 151.183 40.865 151.588 40.0548H158.83C158.357 41.6415 157.547 43.0763 156.399 44.3592C155.285 45.6421 153.918 46.6718 152.297 47.4483C150.677 48.191 148.854 48.5624 146.828 48.5624Z" fill="white"/>
<path d="M165.184 47.9547V22.4318H171.413L171.919 26.5844C172.695 25.1664 173.793 24.0186 175.211 23.1408C176.662 22.263 178.401 21.8241 180.427 21.8241C182.52 21.8241 184.292 22.2799 185.744 23.1914C187.196 24.0692 188.293 25.3521 189.035 27.0401C189.812 28.7281 190.2 30.8044 190.2 33.2689V47.9547H183.161V33.9272C183.161 31.9691 182.739 30.4668 181.895 29.4202C181.085 28.3399 179.785 27.7997 177.996 27.7997C176.915 27.7997 175.936 28.0698 175.059 28.61C174.181 29.1164 173.489 29.8591 172.982 30.8382C172.51 31.7835 172.273 32.9482 172.273 34.3324V47.9547H165.184Z" fill="white"/>
<path d="M207.98 48.5624C205.65 48.5624 203.574 47.9885 201.751 46.8406C199.928 45.6928 198.476 44.106 197.396 42.0804C196.349 40.0548 195.826 37.7759 195.826 35.2439C195.826 32.6443 196.349 30.3486 197.396 28.3568C198.476 26.3311 199.945 24.7444 201.802 23.5966C203.692 22.4149 205.802 21.8241 208.132 21.8241C209.955 21.8241 211.542 22.1617 212.892 22.8369C214.242 23.4784 215.34 24.4068 216.184 25.6222V11.4934H223.273V47.9547H216.994L216.184 44.5111C215.677 45.2201 215.053 45.8953 214.31 46.5368C213.567 47.1445 212.673 47.634 211.626 48.0053C210.579 48.3767 209.364 48.5624 207.98 48.5624ZM209.702 42.3842C211.018 42.3842 212.183 42.0804 213.196 41.4727C214.209 40.865 214.985 40.021 215.525 38.9407C216.099 37.8603 216.386 36.6112 216.386 35.1933C216.386 33.7753 216.099 32.5262 215.525 31.4459C214.985 30.3655 214.209 29.5215 213.196 28.9138C212.183 28.3061 211.018 28.0023 209.702 28.0023C208.419 28.0023 207.271 28.3061 206.258 28.9138C205.245 29.5215 204.452 30.3655 203.878 31.4459C203.338 32.5262 203.068 33.7584 203.068 35.1426C203.068 36.5606 203.338 37.8266 203.878 38.9407C204.452 40.021 205.245 40.865 206.258 41.4727C207.271 42.0804 208.419 42.3842 209.702 42.3842Z" fill="white"/>
<path d="M230.071 47.9547V22.4318H237.16V47.9547H230.071ZM233.615 19.1402C232.333 19.1402 231.286 18.7688 230.476 18.0261C229.665 17.2496 229.26 16.3043 229.26 15.1902C229.26 14.0423 229.665 13.0971 230.476 12.3543C231.286 11.6116 232.333 11.2402 233.615 11.2402C234.898 11.2402 235.945 11.6116 236.755 12.3543C237.565 13.0971 237.971 14.0423 237.971 15.1902C237.971 16.3043 237.565 17.2496 236.755 18.0261C235.945 18.7688 234.898 19.1402 233.615 19.1402Z" fill="white"/>
<path d="M245.078 47.9547V20.3049C245.078 18.1442 245.449 16.4225 246.192 15.1396C246.934 13.8567 247.964 12.9283 249.281 12.3543C250.631 11.7804 252.218 11.4934 254.041 11.4934H257.231V17.5197H255.155C254.075 17.5197 253.298 17.7391 252.826 18.178C252.387 18.5831 252.167 19.2921 252.167 20.3049V47.9547H245.078ZM241.634 28.3568V22.4318H257.586V28.3568H241.634Z" fill="white"/>
<path d="M266.196 59.0956L272.323 45.1188H270.804L260.575 22.4318H268.272L275.514 38.5862L281.844 22.4318H289.389L273.691 59.0956H266.196Z" fill="white"/>
<path d="M72.8774 42.6681C70.8246 42.6681 68.7719 42.6681 66.657 42.6681C66.613 42.0852 66.569 41.5024 66.5237 40.9019C66.0629 35.5704 64.1105 30.0551 60.1943 26.2583C59.7257 25.7841 59.7257 25.7841 59.7257 25.4286C59.6258 25.3865 59.5259 25.3443 59.423 25.3009C58.9231 25.0221 58.5792 24.6745 58.1706 24.2734C54.7633 21.1293 50.2218 19.3475 45.6853 18.6751C45.5295 18.6517 45.3737 18.6283 45.2132 18.6042C39.0262 17.8412 32.7114 19.7605 27.7794 23.4875C22.7412 27.4666 19.3867 33.1622 18.6155 39.5746C18.5011 40.6049 18.4081 41.6352 18.3155 42.6681C16.2628 42.6681 14.21 42.6681 12.0951 42.6681C12.0951 39.7178 12.0951 39.7178 12.295 38.3027C12.3181 38.1379 12.3412 37.9732 12.3649 37.8035C13.0614 33.2209 14.875 28.6468 17.6046 24.8955C17.7404 24.7067 17.8763 24.5179 18.0163 24.3234C20.7831 20.5886 24.3244 17.6095 28.4459 15.476C28.56 15.4167 28.6742 15.3575 28.7918 15.2964C35.7297 11.7407 44.0888 11.0538 51.5267 13.3919C55.6942 14.7673 59.4805 16.7177 62.706 19.7275C63.0701 20.0667 63.4437 20.3877 63.8245 20.7078C68.7414 25.0237 71.6672 31.7002 72.6997 38.0472C72.7185 38.1614 72.7373 38.2756 72.7568 38.3933C72.9542 39.8283 72.8774 41.1926 72.8774 42.6681Z" fill="#044B73"/>
<path d="M56.5264 54.3971C56.4101 54.5394 56.2937 54.6816 56.1738 54.8282C53.2864 58.2161 49.0231 60.3059 44.6188 60.7952C43.915 60.7952 43.2112 60.7952 42.4861 60.7952C42.4861 58.7425 42.4861 56.6898 42.4861 54.5748C42.9663 54.5052 43.4465 54.4355 43.9412 54.3638C47.4043 53.8084 50.1932 52.2468 52.3131 49.4083C54.0953 46.6864 54.882 43.4218 54.2116 40.2003C53.4199 36.876 51.6934 34.1758 48.7818 32.3515C45.9925 30.7134 42.5369 30.2493 39.3759 30.9484C35.8982 32.0311 33.4655 34.1384 31.7781 37.3243C30.9423 39.0669 30.6979 40.7357 30.4007 42.6672C28.348 42.6672 26.2952 42.6672 24.1803 42.6672C24.5078 37.099 26.1146 32.694 30.223 28.8046C32.9429 26.4603 36.2451 24.8469 39.8202 24.3614C39.9629 24.3419 40.1057 24.3225 40.2527 24.3024C44.3267 23.8257 48.176 24.6875 51.7278 26.6718C51.9056 26.7708 52.0834 26.8698 52.2666 26.9718C56.4404 29.4664 59.2588 33.7368 60.4364 38.4018C61.7409 44.0349 60.2312 49.9997 56.5264 54.3971Z" fill="#EF4852"/>
<path d="M42.6638 0.0127644C42.6638 2.0655 42.6638 4.11824 42.6638 6.23318C42.015 6.27716 41.3662 6.32115 40.6977 6.36647C31.4834 7.08232 22.2787 10.7726 16.0049 17.7854C15.457 18.4257 14.9289 19.08 14.4054 19.7404C14.3322 19.8316 14.259 19.9229 14.1836 20.017C8.85264 26.6786 6.8035 34.2847 6.22997 42.667C4.17724 42.667 2.1245 42.667 0.00956326 42.667C-0.203521 32.9361 3.14175 23.1208 9.42905 15.6527C9.51399 15.5499 9.59892 15.4472 9.68644 15.3414C11.4942 13.1552 13.4089 11.1801 15.6495 9.43224C15.8243 9.29203 15.9991 9.15182 16.1792 9.00736C23.1015 3.5015 32.1738 -0.0884122 41.0865 0.0016564C41.607 0.00532205 42.1275 0.00898771 42.6638 0.0127644Z" fill="#EF4852"/>
<rect x="12.0847" y="54.4785" width="28.0058" height="6.5219" fill="#EF4852"/>
<path d="M0.19165 52.1758L0.19165 45.6539L37.4049 45.6539L42.3922 52.1758L0.19165 52.1758Z" fill="#044B73"/>
<circle cx="42.3924" cy="42.9672" r="7.5" stroke="#044B73" stroke-width="3.41478"/>
</svg>
