<svg width="755" height="159" viewBox="0 0 755 159" fill="none" xmlns="http://www.w3.org/2000/svg">
<path d="M233.476 125.001V32.6008H255.652L283.504 89.4928L310.96 32.6008H333.004V125.001H314.524V63.8848L290.632 112.065H275.98L251.956 63.8848V125.001H233.476Z" fill="#242424"/>
<path d="M382.722 126.585C376.034 126.585 370.094 125.177 364.902 122.361C359.798 119.457 355.794 115.453 352.89 110.349C349.986 105.157 348.534 99.1728 348.534 92.3968C348.534 85.5328 349.942 79.4608 352.758 74.1808C355.662 68.8128 359.666 64.5888 364.77 61.5088C369.962 58.4288 375.99 56.8888 382.854 56.8888C389.454 56.8888 395.218 58.3408 400.146 61.2448C405.162 64.1488 409.034 68.0648 411.762 72.9928C414.578 77.9208 415.986 83.5968 415.986 90.0208C415.986 90.9008 415.942 91.8688 415.854 92.9248C415.854 93.9808 415.766 95.1248 415.59 96.3568H361.734V85.1368H397.242C396.978 81.0888 395.482 77.8768 392.754 75.5008C390.114 73.0368 386.814 71.8048 382.854 71.8048C379.862 71.8048 377.134 72.5088 374.67 73.9168C372.206 75.3248 370.27 77.3928 368.862 80.1208C367.454 82.8488 366.75 86.3248 366.75 90.5488V94.3768C366.75 97.8088 367.41 100.845 368.73 103.485C370.05 106.037 371.898 108.017 374.274 109.425C376.65 110.833 379.422 111.537 382.59 111.537C385.758 111.537 388.354 110.877 390.378 109.557C392.49 108.237 394.074 106.521 395.13 104.409H414.006C412.774 108.545 410.662 112.285 407.67 115.629C404.766 118.973 401.202 121.657 396.978 123.681C392.754 125.617 388.002 126.585 382.722 126.585Z" fill="#242424"/>
<path d="M430.568 125.001V58.4728H446.804L448.124 69.2968C450.148 65.6008 453.008 62.6088 456.704 60.3208C460.488 58.0328 465.02 56.8888 470.3 56.8888C475.756 56.8888 480.376 58.0768 484.16 60.4528C487.944 62.7408 490.804 66.0848 492.74 70.4848C494.764 74.8848 495.776 80.2968 495.776 86.7208V125.001H477.428V88.4368C477.428 83.3328 476.328 79.4168 474.128 76.6888C472.016 73.8728 468.628 72.4648 463.964 72.4648C461.148 72.4648 458.596 73.1688 456.308 74.5768C454.02 75.8968 452.216 77.8328 450.896 80.3848C449.664 82.8488 449.048 85.8848 449.048 89.4928V125.001H430.568Z" fill="#242424"/>
<path d="M542.12 126.585C536.048 126.585 530.636 125.089 525.884 122.097C521.132 119.105 517.348 114.969 514.532 109.689C511.804 104.409 510.44 98.4688 510.44 91.8688C510.44 85.0928 511.804 79.1088 514.532 73.9168C517.348 68.6368 521.176 64.5008 526.016 61.5088C530.944 58.4288 536.444 56.8888 542.516 56.8888C547.268 56.8888 551.404 57.7688 554.924 59.5288C558.444 61.2008 561.304 63.6208 563.504 66.7888V29.9608H581.984V125.001H565.616L563.504 116.025C562.184 117.873 560.556 119.633 558.62 121.305C556.684 122.889 554.352 124.165 551.624 125.133C548.896 126.101 545.728 126.585 542.12 126.585ZM546.608 110.481C550.04 110.481 553.076 109.689 555.716 108.105C558.356 106.521 560.38 104.321 561.788 101.505C563.284 98.6888 564.032 95.4328 564.032 91.7368C564.032 88.0408 563.284 84.7848 561.788 81.9688C560.38 79.1528 558.356 76.9528 555.716 75.3688C553.076 73.7848 550.04 72.9928 546.608 72.9928C543.264 72.9928 540.272 73.7848 537.632 75.3688C534.992 76.9528 532.924 79.1528 531.428 81.9688C530.02 84.7848 529.316 87.9968 529.316 91.6048C529.316 95.3008 530.02 98.6008 531.428 101.505C532.924 104.321 534.992 106.521 537.632 108.105C540.272 109.689 543.264 110.481 546.608 110.481Z" fill="#242424"/>
<path d="M599.702 125.001V58.4728H618.182V125.001H599.702ZM608.942 49.8928C605.598 49.8928 602.87 48.9248 600.758 46.9888C598.646 44.9648 597.59 42.5008 597.59 39.5968C597.59 36.6048 598.646 34.1408 600.758 32.2048C602.87 30.2688 605.598 29.3008 608.942 29.3008C612.286 29.3008 615.014 30.2688 617.126 32.2048C619.238 34.1408 620.294 36.6048 620.294 39.5968C620.294 42.5008 619.238 44.9648 617.126 46.9888C615.014 48.9248 612.286 49.8928 608.942 49.8928Z" fill="#242424"/>
<path d="M638.819 125.001V52.9288C638.819 47.2968 639.787 42.8088 641.723 39.4648C643.659 36.1208 646.343 33.7008 649.775 32.2048C653.295 30.7088 657.431 29.9608 662.183 29.9608H670.499V45.6688H665.087C662.271 45.6688 660.247 46.2408 659.015 47.3848C657.871 48.4408 657.299 50.2888 657.299 52.9288V125.001H638.819ZM629.843 73.9168V58.4728H671.423V73.9168H629.843Z" fill="#242424"/>
<path d="M693.866 154.041L709.838 117.609H705.878L679.214 58.4728H699.278L718.154 100.581L734.654 58.4728H754.322L713.402 154.041H693.866Z" fill="#242424"/>
<path d="M189.962 111.216C184.611 111.216 179.261 111.216 173.748 111.216C173.633 109.697 173.519 108.177 173.401 106.612C172.199 92.7151 167.11 78.3388 156.902 68.442C155.681 67.206 155.681 67.206 155.681 66.2795C155.42 66.1696 155.16 66.0597 154.892 65.9465C153.589 65.2197 152.692 64.3137 151.627 63.2683C142.746 55.0729 130.908 50.4284 119.083 48.6756C118.677 48.6147 118.271 48.5538 117.853 48.491C101.725 46.502 85.2655 51.5049 72.4097 61.2198C59.277 71.5916 50.5333 86.4378 48.523 103.152C48.2249 105.838 47.9824 108.524 47.741 111.216C42.3903 111.216 37.0397 111.216 31.5269 111.216C31.5269 103.526 31.5269 103.526 32.048 99.837C32.1082 99.4076 32.1683 98.9782 32.2302 98.5357C34.0458 86.5909 38.7729 74.668 45.888 64.8897C46.2421 64.3976 46.5962 63.9056 46.9611 63.3986C54.1731 53.6635 63.4039 45.8981 74.1469 40.3369C74.4444 40.1824 74.742 40.028 75.0485 39.8689C93.1331 30.6004 114.922 28.8099 134.309 34.9044C145.172 38.4896 155.042 43.5735 163.45 51.419C164.398 52.3031 165.372 53.1397 166.365 53.9741C179.181 65.224 186.808 82.6269 189.499 99.171C189.548 99.4687 189.597 99.7664 189.648 100.073C190.162 103.814 189.962 107.37 189.962 111.216Z" fill="#044B73"/>
<path d="M147.342 141.792C147.039 142.163 146.735 142.533 146.423 142.916C138.897 151.746 127.784 157.194 116.304 158.469C114.469 158.469 112.635 158.469 110.744 158.469C110.744 153.118 110.744 147.768 110.744 142.255C111.996 142.073 113.248 141.892 114.537 141.705C123.564 140.257 130.834 136.187 136.359 128.788C141.005 121.693 143.056 113.184 141.308 104.786C139.244 96.1212 134.744 89.0829 127.155 84.3276C119.884 80.0577 110.877 78.8479 102.637 80.6703C93.5725 83.4925 87.2313 88.9854 82.8329 97.2898C80.6545 101.832 80.0172 106.182 79.2427 111.217C73.892 111.217 68.5413 111.217 63.0285 111.217C63.8823 96.7026 68.0705 85.2205 78.7794 75.0822C85.869 68.9717 94.4767 64.7662 103.795 63.5007C104.168 63.4499 104.54 63.3991 104.923 63.3468C115.542 62.1043 125.576 64.3506 134.834 69.5231C135.297 69.781 135.761 70.039 136.238 70.3048C147.118 76.8075 154.464 87.9386 157.534 100.098C160.934 114.782 156.999 130.329 147.342 141.792Z" fill="#EF4852"/>
<path d="M111.208 0.0332718C111.208 5.38394 111.208 10.7346 111.208 16.2474C109.516 16.3621 107.825 16.4767 106.083 16.5949C82.0646 18.4608 58.0717 28.0799 41.7184 46.3594C40.2901 48.0284 38.9136 49.7339 37.549 51.4552C37.3582 51.6932 37.1674 51.9312 36.9708 52.1764C23.0753 69.5405 17.734 89.3667 16.239 111.216C10.8883 111.216 5.53768 111.216 0.0248737 111.216C-0.530552 85.8513 8.18923 60.2666 24.5777 40.8002C24.7991 40.5325 25.0205 40.2647 25.2486 39.9888C29.9608 34.2905 34.9516 29.142 40.7918 24.5861C41.2475 24.2206 41.7031 23.8552 42.1726 23.4786C60.2165 9.127 83.8642 -0.230455 107.096 0.00431758C108.453 0.0138725 109.81 0.0234274 111.208 0.0332718Z" fill="#EF4852"/>
<rect x="31.5" y="142.002" width="73" height="17" fill="#EF4852"/>
<path d="M0.5 136.002L0.499999 119.002L97.5 119.002L110.5 136.002L0.5 136.002Z" fill="#044B73"/>
<circle cx="110.5" cy="112.002" r="16.5" stroke="#044B73" stroke-width="15"/>
</svg>
