<svg width="190" height="159" viewBox="0 0 190 159" fill="none" xmlns="http://www.w3.org/2000/svg">
<path d="M189.962 111.216C184.611 111.216 179.261 111.216 173.748 111.216C173.633 109.697 173.519 108.177 173.401 106.612C172.199 92.7151 167.11 78.3388 156.902 68.442C155.681 67.206 155.681 67.206 155.681 66.2795C155.42 66.1696 155.16 66.0597 154.892 65.9465C153.589 65.2197 152.692 64.3137 151.627 63.2683C142.746 55.0729 130.908 50.4284 119.083 48.6756C118.677 48.6147 118.271 48.5538 117.853 48.491C101.725 46.502 85.2655 51.5049 72.4097 61.2198C59.277 71.5916 50.5333 86.4378 48.523 103.152C48.2249 105.838 47.9824 108.524 47.741 111.216C42.3903 111.216 37.0397 111.216 31.5269 111.216C31.5269 103.526 31.5269 103.526 32.048 99.837C32.1082 99.4076 32.1683 98.9782 32.2302 98.5357C34.0458 86.5909 38.7729 74.668 45.888 64.8897C46.2421 64.3976 46.5962 63.9056 46.9611 63.3986C54.1731 53.6635 63.4039 45.8981 74.1469 40.3369C74.4444 40.1824 74.742 40.028 75.0485 39.8689C93.1331 30.6004 114.922 28.8099 134.309 34.9044C145.172 38.4896 155.042 43.5735 163.45 51.419C164.398 52.3031 165.372 53.1397 166.365 53.9741C179.181 65.224 186.808 82.6269 189.499 99.171C189.548 99.4687 189.597 99.7664 189.648 100.073C190.162 103.814 189.962 107.37 189.962 111.216Z" fill="#044B73"/>
<path d="M147.342 141.792C147.039 142.163 146.735 142.533 146.423 142.916C138.897 151.746 127.784 157.194 116.304 158.469C114.469 158.469 112.635 158.469 110.744 158.469C110.744 153.118 110.744 147.768 110.744 142.255C111.996 142.073 113.248 141.892 114.537 141.705C123.564 140.257 130.834 136.187 136.359 128.788C141.005 121.693 143.056 113.184 141.308 104.786C139.244 96.1212 134.744 89.0829 127.155 84.3276C119.884 80.0577 110.877 78.8479 102.637 80.6703C93.5725 83.4924 87.2313 88.9854 82.8329 97.2898C80.6545 101.832 80.0172 106.182 79.2427 111.217C73.892 111.217 68.5413 111.217 63.0285 111.217C63.8823 96.7026 68.0705 85.2205 78.7794 75.0822C85.869 68.9717 94.4767 64.7662 103.796 63.5007C104.168 63.4499 104.54 63.3991 104.923 63.3468C115.542 62.1043 125.576 64.3506 134.834 69.5231C135.297 69.781 135.761 70.039 136.238 70.3048C147.118 76.8075 154.464 87.9386 157.534 100.098C160.934 114.782 156.999 130.329 147.342 141.792Z" fill="#EF4852"/>
<path d="M111.208 0.0332718C111.208 5.38394 111.208 10.7346 111.208 16.2474C109.516 16.3621 107.825 16.4767 106.083 16.5949C82.0646 18.4608 58.0717 28.0799 41.7184 46.3594C40.2901 48.0284 38.9136 49.7339 37.549 51.4552C37.3582 51.6932 37.1674 51.9312 36.9709 52.1764C23.0753 69.5405 17.734 89.3667 16.239 111.216C10.8883 111.216 5.53768 111.216 0.024876 111.216C-0.530549 85.8513 8.18923 60.2666 24.5777 40.8002C24.7991 40.5325 25.0205 40.2647 25.2486 39.9888C29.9608 34.2905 34.9516 29.142 40.7918 24.5861C41.2475 24.2206 41.7031 23.8552 42.1726 23.4786C60.2165 9.127 83.8642 -0.230455 107.096 0.00431758C108.453 0.0138725 109.81 0.0234274 111.208 0.0332718Z" fill="#EF4852"/>
<rect x="31.5" y="142.002" width="73" height="17" fill="#EF4852"/>
<path d="M0.5 136.002L0.499999 119.002L97.5 119.002L110.5 136.002L0.5 136.002Z" fill="#044B73"/>
<circle cx="110.5" cy="112.002" r="16.5" stroke="#044B73" stroke-width="15"/>
</svg>
