<svg width="290" height="61" viewBox="0 0 290 61" fill="none" xmlns="http://www.w3.org/2000/svg">
<path d="M89.5718 47.9547V12.5062H98.0794L108.765 34.3324L119.298 12.5062H127.755V47.9547H120.665V24.5081L111.499 42.9919H105.878L96.6615 24.5081V47.9547H89.5718Z" fill="#242424"/>
<path d="M146.829 48.5624C144.263 48.5624 141.984 48.0222 139.992 46.9419C138.034 45.8278 136.498 44.2917 135.384 42.3336C134.27 40.3417 133.713 38.046 133.713 35.4465C133.713 32.8131 134.253 30.4837 135.333 28.4581C136.447 26.3987 137.983 24.7782 139.941 23.5966C141.933 22.4149 144.246 21.8241 146.879 21.8241C149.411 21.8241 151.623 22.3812 153.513 23.4953C155.437 24.6094 156.923 26.1117 157.969 28.0023C159.05 29.8929 159.59 32.0704 159.59 34.5349C159.59 34.8725 159.573 35.2439 159.539 35.649C159.539 36.0542 159.506 36.493 159.438 36.9657H138.777V32.6612H152.399C152.298 31.1082 151.724 29.876 150.677 28.9645C149.664 28.0192 148.398 27.5465 146.879 27.5465C145.731 27.5465 144.685 27.8166 143.739 28.3568C142.794 28.8969 142.051 29.6903 141.511 30.7369C140.971 31.7835 140.701 33.117 140.701 34.7375V36.2061C140.701 37.5227 140.954 38.6875 141.461 39.7003C141.967 40.6793 142.676 41.4389 143.588 41.9791C144.499 42.5193 145.563 42.7894 146.778 42.7894C147.993 42.7894 148.989 42.5362 149.766 42.0297C150.576 41.5233 151.184 40.865 151.589 40.0548H158.83C158.358 41.6415 157.547 43.0763 156.4 44.3592C155.286 45.6421 153.918 46.6718 152.298 47.4483C150.677 48.191 148.854 48.5624 146.829 48.5624Z" fill="#242424"/>
<path d="M165.184 47.9547V22.4318H171.413L171.919 26.5844C172.696 25.1664 173.793 24.0186 175.211 23.1408C176.663 22.263 178.401 21.8241 180.427 21.8241C182.52 21.8241 184.293 22.2799 185.744 23.1914C187.196 24.0692 188.293 25.3521 189.036 27.0401C189.812 28.7281 190.201 30.8044 190.201 33.2689V47.9547H183.162V33.9272C183.162 31.9691 182.74 30.4668 181.896 29.4202C181.085 28.3399 179.786 27.7997 177.996 27.7997C176.916 27.7997 175.937 28.0698 175.059 28.61C174.181 29.1164 173.489 29.8591 172.983 30.8382C172.51 31.7835 172.274 32.9482 172.274 34.3324V47.9547H165.184Z" fill="#242424"/>
<path d="M207.98 48.5624C205.651 48.5624 203.575 47.9885 201.751 46.8406C199.928 45.6928 198.477 44.106 197.396 42.0804C196.35 40.0548 195.827 37.7759 195.827 35.2439C195.827 32.6443 196.35 30.3486 197.396 28.3568C198.477 26.3311 199.945 24.7444 201.802 23.5966C203.693 22.4149 205.803 21.8241 208.132 21.8241C209.955 21.8241 211.542 22.1617 212.892 22.8369C214.243 23.4784 215.34 24.4068 216.184 25.6222V11.4934H223.274V47.9547H216.994L216.184 44.5111C215.678 45.2201 215.053 45.8953 214.31 46.5368C213.568 47.1445 212.673 47.634 211.626 48.0053C210.58 48.3767 209.364 48.5624 207.98 48.5624ZM209.702 42.3842C211.019 42.3842 212.183 42.0804 213.196 41.4727C214.209 40.865 214.986 40.021 215.526 38.9407C216.1 37.8603 216.387 36.6112 216.387 35.1933C216.387 33.7753 216.1 32.5262 215.526 31.4459C214.986 30.3655 214.209 29.5215 213.196 28.9138C212.183 28.3061 211.019 28.0023 209.702 28.0023C208.419 28.0023 207.271 28.3061 206.259 28.9138C205.246 29.5215 204.452 30.3655 203.878 31.4459C203.338 32.5262 203.068 33.7584 203.068 35.1426C203.068 36.5606 203.338 37.8266 203.878 38.9407C204.452 40.021 205.246 40.865 206.259 41.4727C207.271 42.0804 208.419 42.3842 209.702 42.3842Z" fill="#242424"/>
<path d="M230.071 47.9547V22.4318H237.161V47.9547H230.071ZM233.616 19.1402C232.333 19.1402 231.286 18.7688 230.476 18.0261C229.666 17.2496 229.261 16.3043 229.261 15.1902C229.261 14.0423 229.666 13.0971 230.476 12.3543C231.286 11.6116 232.333 11.2402 233.616 11.2402C234.899 11.2402 235.945 11.6116 236.756 12.3543C237.566 13.0971 237.971 14.0423 237.971 15.1902C237.971 16.3043 237.566 17.2496 236.756 18.0261C235.945 18.7688 234.899 19.1402 233.616 19.1402Z" fill="#242424"/>
<path d="M245.078 47.9547V20.3049C245.078 18.1442 245.449 16.4225 246.192 15.1396C246.935 13.8567 247.965 12.9283 249.281 12.3543C250.632 11.7804 252.218 11.4934 254.042 11.4934H257.232V17.5197H255.156C254.075 17.5197 253.299 17.7391 252.826 18.178C252.387 18.5831 252.168 19.2921 252.168 20.3049V47.9547H245.078ZM241.635 28.3568V22.4318H257.586V28.3568H241.635Z" fill="#242424"/>
<path d="M266.196 59.0956L272.324 45.1188H270.805L260.575 22.4318H268.273L275.514 38.5862L281.844 22.4318H289.39L273.691 59.0956H266.196Z" fill="#242424"/>
<path d="M72.8779 42.6681C70.8251 42.6681 68.7724 42.6681 66.6575 42.6681C66.6135 42.0852 66.5695 41.5024 66.5242 40.9019C66.0634 35.5704 64.111 30.0551 60.1948 26.2583C59.7261 25.7841 59.7261 25.7841 59.7261 25.4286C59.6263 25.3865 59.5264 25.3443 59.4235 25.3009C58.9236 25.0221 58.5797 24.6745 58.171 24.2734C54.7638 21.1293 50.2222 19.3475 45.6858 18.6751C45.53 18.6517 45.3742 18.6283 45.2137 18.6042C39.0266 17.8412 32.7119 19.7605 27.7799 23.4875C22.7417 27.4666 19.3872 33.1622 18.616 39.5746C18.5016 40.6049 18.4086 41.6352 18.316 42.6681C16.2632 42.6681 14.2105 42.6681 12.0956 42.6681C12.0956 39.7178 12.0956 39.7178 12.2955 38.3027C12.3186 38.1379 12.3416 37.9732 12.3654 37.8035C13.0619 33.2209 14.8755 28.6468 17.6051 24.8955C17.7409 24.7067 17.8768 24.5179 18.0168 24.3234C20.7836 20.5886 24.3249 17.6095 28.4464 15.476C28.5605 15.4167 28.6747 15.3575 28.7923 15.2964C35.7302 11.7407 44.0893 11.0538 51.5271 13.3919C55.6947 14.7673 59.4809 16.7177 62.7065 19.7275C63.0706 20.0667 63.4442 20.3877 63.8249 20.7078C68.7419 25.0237 71.6677 31.7002 72.7001 38.0472C72.719 38.1614 72.7378 38.2756 72.7572 38.3933C72.9547 39.8283 72.8779 41.1926 72.8779 42.6681Z" fill="#044B73"/>
<path d="M56.5269 54.3971C56.4105 54.5394 56.2942 54.6816 56.1743 54.8282C53.2869 58.2161 49.0236 60.3059 44.6193 60.7952C43.9155 60.7952 43.2117 60.7952 42.4866 60.7952C42.4866 58.7425 42.4866 56.6898 42.4866 54.5748C42.9668 54.5052 43.447 54.4355 43.9417 54.3638C47.4048 53.8084 50.1937 52.2468 52.3136 49.4083C54.0958 46.6864 54.8825 43.4218 54.2121 40.2003C53.4203 36.876 51.6938 34.1758 48.7823 32.3515C45.993 30.7134 42.5374 30.2493 39.3764 30.9484C35.8987 32.0311 33.466 34.1384 31.7786 37.3243C30.9428 39.0669 30.6983 40.7357 30.4012 42.6672C28.3485 42.6672 26.2957 42.6672 24.1808 42.6672C24.5083 37.099 26.1151 32.694 30.2235 28.8046C32.9433 26.4603 36.2456 24.8469 39.8207 24.3614C39.9634 24.3419 40.1061 24.3225 40.2532 24.3024C44.3271 23.8257 48.1765 24.6875 51.7283 26.6718C51.9061 26.7708 52.0839 26.8698 52.2671 26.9718C56.4409 29.4664 59.2593 33.7368 60.4369 38.4018C61.7414 44.0349 60.2316 49.9997 56.5269 54.3971Z" fill="#EF4852"/>
<path d="M42.6643 0.0127644C42.6643 2.0655 42.6643 4.11824 42.6643 6.23318C42.0155 6.27716 41.3667 6.32115 40.6982 6.36647C31.4839 7.08232 22.2792 10.7726 16.0054 17.7854C15.4575 18.4257 14.9294 19.08 14.4059 19.7404C14.3327 19.8316 14.2595 19.9229 14.1841 20.017C8.85313 26.6786 6.80399 34.2847 6.23046 42.667C4.17773 42.667 2.12499 42.667 0.0100515 42.667C-0.203033 32.9361 3.14224 23.1208 9.42953 15.6527C9.51447 15.5499 9.59941 15.4472 9.68693 15.3414C11.4947 13.1552 13.4094 11.1801 15.6499 9.43224C15.8248 9.29203 15.9996 9.15182 16.1797 9.00736C23.102 3.5015 32.1743 -0.0884122 41.087 0.0016564C41.6075 0.00532205 42.128 0.00898771 42.6643 0.0127644Z" fill="#EF4852"/>
<rect x="12.0852" y="54.4785" width="28.0058" height="6.5219" fill="#EF4852"/>
<path d="M0.192139 52.1758L0.192138 45.6539L37.4053 45.6539L42.3927 52.1758L0.192139 52.1758Z" fill="#044B73"/>
<circle cx="42.3929" cy="42.9672" r="7.5" stroke="#044B73" stroke-width="3.41478"/>
</svg>
