<svg width="1055" height="157" viewBox="0 0 1055 157" fill="none" xmlns="http://www.w3.org/2000/svg">
<path d="M1021.43 133.084C1017.06 133.084 1013 132.307 1009.22 130.754C1005.45 129.126 1002.16 126.907 999.345 124.095V131.753H985.473V25.2168H1001.12V71.1603C1003.86 68.8669 1006.93 67.0913 1010.33 65.8336C1013.81 64.5019 1017.51 63.836 1021.43 63.836C1027.57 63.836 1033.16 65.3897 1038.19 68.4969C1043.22 71.6042 1047.21 75.7843 1050.17 81.0371C1053.2 86.2899 1054.72 92.0976 1054.72 98.4601C1054.72 104.823 1053.2 110.63 1050.17 115.883C1047.21 121.136 1043.22 125.316 1038.19 128.423C1033.16 131.531 1027.57 133.084 1021.43 133.084ZM1019.54 119.101C1023.24 119.101 1026.61 118.177 1029.64 116.327C1032.75 114.477 1035.19 111.999 1036.97 108.892C1038.82 105.784 1039.74 102.307 1039.74 98.4601C1039.74 94.687 1038.82 91.2468 1036.97 88.1395C1035.19 84.9582 1032.79 82.4428 1029.75 80.5932C1026.72 78.7436 1023.32 77.8188 1019.54 77.8188C1015.84 77.8188 1012.44 78.7436 1009.33 80.5932C1006.3 82.4428 1003.86 84.9212 1002.01 88.0285C1000.23 91.1358 999.345 94.613 999.345 98.4601C999.345 102.233 1000.23 105.71 1002.01 108.892C1003.86 111.999 1006.3 114.477 1009.33 116.327C1012.37 118.177 1015.77 119.101 1019.54 119.101Z" fill="#282828" fill-opacity="0.65"/>
<path d="M931.481 133.074C925.414 133.074 919.865 131.521 914.834 128.413C909.803 125.306 905.771 121.126 902.738 115.873C899.779 110.621 898.299 104.813 898.299 98.4503C898.299 92.0877 899.779 86.2801 902.738 81.0273C905.771 75.7745 909.803 71.5944 914.834 68.4871C919.865 65.3798 925.414 63.8262 931.481 63.8262C935.92 63.8262 940.026 64.64 943.799 66.2676C947.646 67.8213 950.938 70.0408 953.675 72.9261V65.1579H967.547V131.743H953.675V123.974C950.938 126.786 947.646 129.005 943.799 130.633C940.026 132.261 935.92 133.074 931.481 133.074ZM933.478 119.092C937.177 119.092 940.543 118.167 943.577 116.317C946.684 114.468 949.125 111.989 950.901 108.882C952.751 105.775 953.675 102.297 953.675 98.4503C953.675 94.6772 952.751 91.2369 950.901 88.1296C949.125 84.9484 946.721 82.4329 943.688 80.5834C940.654 78.7338 937.251 77.809 933.478 77.809C929.779 77.809 926.376 78.7338 923.268 80.5834C920.235 82.4329 917.794 84.9114 915.944 88.0187C914.168 91.126 913.281 94.6032 913.281 98.4503C913.281 102.223 914.168 105.701 915.944 108.882C917.794 111.989 920.235 114.468 923.268 116.317C926.302 118.167 929.705 119.092 933.478 119.092Z" fill="#282828" fill-opacity="0.65"/>
<path d="M842.263 131.742V31.8652H858.91V117.094H891.203V131.742H842.263Z" fill="#282828" fill-opacity="0.65"/>
<path d="M767.484 133.532C763.489 133.532 759.346 132.867 755.055 131.535C750.838 130.129 747.398 128.021 744.734 125.209L748.729 109.562C750.875 112.743 753.723 115.407 757.274 117.552C760.826 119.698 764.525 120.77 768.372 120.77C771.553 120.77 773.884 120.068 775.363 118.662C776.843 117.256 777.583 115.555 777.583 113.557C777.583 111.338 776.806 109.71 775.252 108.674C773.699 107.564 772.219 106.751 770.813 106.233L761.603 102.792C759.753 102.053 757.57 101.017 755.055 99.6852C752.614 98.2795 750.468 96.319 748.618 93.8035C746.769 91.2881 745.844 87.9959 745.844 83.9268C745.844 80.2276 746.732 76.8244 748.507 73.7171C750.357 70.6098 752.983 68.1314 756.387 66.2818C759.79 64.3583 763.859 63.3965 768.594 63.3965C772.663 63.3965 776.621 64.0993 780.468 65.505C784.389 66.9107 787.46 68.7972 789.679 71.1647L785.795 86.5902C783.65 83.3349 780.949 80.7825 777.694 78.9329C774.513 77.0834 771.331 76.1586 768.15 76.1586C765.413 76.1586 763.341 76.8244 761.935 78.1561C760.53 79.4878 759.827 81.0415 759.827 82.817C759.827 84.1487 760.308 85.4065 761.27 86.5902C762.231 87.6999 763.785 88.6617 765.931 89.4755L774.698 92.8048C776.769 93.5446 779.1 94.6173 781.689 96.023C784.352 97.4287 786.646 99.4263 788.569 102.016C790.493 104.605 791.455 108.119 791.455 112.558C791.455 118.773 789.198 123.841 784.685 127.762C780.246 131.609 774.513 133.532 767.484 133.532Z" fill="#282828"/>
<path d="M705.782 131.743V77.809H692.021V65.1579H706.115V42.9629H721.097V65.1579H735.967V77.809H721.43V131.743H705.782Z" fill="#282828"/>
<path d="M664.26 131.767V65.1824H679.908V131.767H664.26ZM672.139 54.4179C669.55 54.4179 667.368 53.5301 665.592 51.7545C663.816 49.9049 662.929 47.7224 662.929 45.207C662.929 42.5436 663.816 40.3611 665.592 38.6595C667.442 36.8839 669.624 35.9961 672.139 35.9961C674.803 35.9961 676.985 36.8839 678.687 38.6595C680.463 40.4351 681.35 42.6176 681.35 45.207C681.35 47.7964 680.463 49.9789 678.687 51.7545C676.911 53.5301 674.729 54.4179 672.139 54.4179Z" fill="#282828"/>
<path d="M616.926 133.084C612.561 133.084 608.492 132.307 604.719 130.754C600.946 129.126 597.654 126.907 594.842 124.095V131.753H580.97V25.2168H596.618V71.1603C599.355 68.8669 602.425 67.0913 605.829 65.8336C609.306 64.5019 613.005 63.836 616.926 63.836C623.067 63.836 628.652 65.3897 633.683 68.4969C638.714 71.6042 642.709 75.7843 645.669 81.0371C648.702 86.2899 650.219 92.0976 650.219 98.4601C650.219 104.823 648.702 110.63 645.669 115.883C642.709 121.136 638.714 125.316 633.683 128.423C628.652 131.531 623.067 133.084 616.926 133.084ZM615.04 119.101C618.739 119.101 622.105 118.177 625.138 116.327C628.246 114.477 630.687 111.999 632.463 108.892C634.312 105.784 635.237 102.307 635.237 98.4601C635.237 94.687 634.312 91.2468 632.463 88.1395C630.687 84.9582 628.283 82.4428 625.249 80.5932C622.216 78.7436 618.813 77.8188 615.04 77.8188C611.34 77.8188 607.937 78.7436 604.83 80.5932C601.797 82.4428 599.355 84.9212 597.506 88.0285C595.73 91.1358 594.842 94.613 594.842 98.4601C594.842 102.233 595.73 105.71 597.506 108.892C599.355 111.999 601.797 114.477 604.83 116.327C607.863 118.177 611.266 119.101 615.04 119.101Z" fill="#282828"/>
<path d="M527.089 133.084C520.948 133.084 515.362 131.531 510.331 128.423C505.301 125.316 501.269 121.136 498.235 115.883C495.276 110.63 493.796 104.823 493.796 98.4601C493.796 92.0976 495.276 86.2899 498.235 81.0371C501.269 75.7843 505.301 71.6042 510.331 68.4969C515.362 65.3897 520.948 63.836 527.089 63.836C531.01 63.836 534.672 64.5019 538.075 65.8336C541.552 67.0913 544.66 68.8669 547.397 71.1603V25.2168H563.044V131.753H549.173V124.095C546.435 126.907 543.143 129.126 539.296 130.754C535.523 132.307 531.454 133.084 527.089 133.084ZM528.975 119.101C532.674 119.101 536.041 118.177 539.074 116.327C542.181 114.477 544.623 111.999 546.398 108.892C548.248 105.784 549.173 102.307 549.173 98.4601C549.173 94.687 548.248 91.2468 546.398 88.1395C544.623 84.9582 542.218 82.4428 539.185 80.5932C536.152 78.7436 532.748 77.8188 528.975 77.8188C525.276 77.8188 521.873 78.7436 518.766 80.5932C515.732 82.4428 513.291 84.9212 511.441 88.0285C509.666 91.1358 508.778 94.613 508.778 98.4601C508.778 102.233 509.666 105.71 511.441 108.892C513.291 111.999 515.732 114.477 518.766 116.327C521.799 118.177 525.202 119.101 528.975 119.101Z" fill="#282828"/>
<path d="M443.799 133.074C437.732 133.074 432.183 131.521 427.152 128.413C422.122 125.306 418.089 121.126 415.056 115.873C412.097 110.621 410.617 104.813 410.617 98.4503C410.617 92.0877 412.097 86.2801 415.056 81.0273C418.089 75.7745 422.122 71.5944 427.152 68.4871C432.183 65.3798 437.732 63.8262 443.799 63.8262C448.238 63.8262 452.344 64.64 456.117 66.2676C459.964 67.8213 463.256 70.0408 465.994 72.9261V65.1579H479.865V131.743H465.994V123.974C463.256 126.786 459.964 129.005 456.117 130.633C452.344 132.261 448.238 133.074 443.799 133.074ZM445.796 119.092C449.495 119.092 452.862 118.167 455.895 116.317C459.002 114.468 461.444 111.989 463.219 108.882C465.069 105.775 465.994 102.297 465.994 98.4503C465.994 94.6772 465.069 91.2369 463.219 88.1296C461.444 84.9484 459.039 82.4329 456.006 80.5834C452.973 78.7338 449.569 77.809 445.796 77.809C442.097 77.809 438.694 78.7338 435.586 80.5834C432.553 82.4329 430.112 84.9114 428.262 88.0187C426.487 91.126 425.599 94.6032 425.599 98.4503C425.599 102.223 426.487 105.701 428.262 108.882C430.112 111.989 432.553 114.468 435.586 116.317C438.62 118.167 442.023 119.092 445.796 119.092Z" fill="#282828"/>
<path d="M361.327 133.538C356.666 133.538 352.301 132.391 348.232 130.098C344.163 127.804 340.834 124.475 338.244 120.11C335.729 115.745 334.471 110.455 334.471 104.241V65.1777H350.119V102.132C350.119 106.645 351.45 110.64 354.114 114.118C356.851 117.521 360.661 119.222 365.544 119.222C369.539 119.222 373.09 117.78 376.198 114.894C379.379 112.009 380.97 107.866 380.97 102.465V65.1777H396.617V131.763H382.301V122.885C379.86 126.362 376.79 129.025 373.09 130.875C369.465 132.65 365.544 133.538 361.327 133.538Z" fill="#282828"/>
<path d="M302.587 135.099L295.152 126.221C291.231 128.662 286.94 130.512 282.279 131.769C277.692 133.101 272.92 133.767 267.963 133.767C260.713 133.767 253.906 132.435 247.544 129.772C241.181 127.034 235.595 123.298 230.786 118.563C225.978 113.828 222.204 108.317 219.467 102.028C216.804 95.7395 215.472 89.007 215.472 81.8307C215.472 74.6543 216.804 67.9218 219.467 61.6333C222.204 55.3447 225.978 49.833 230.786 45.0981C235.595 40.3631 241.181 36.664 247.544 34.0006C253.906 31.2632 260.713 29.8945 267.963 29.8945C275.287 29.8945 282.094 31.2632 288.382 34.0006C294.745 36.664 300.331 40.3631 305.139 45.0981C309.948 49.833 313.685 55.3447 316.348 61.6333C319.085 67.9218 320.454 74.6543 320.454 81.8307C320.454 88.7111 319.196 95.1846 316.681 101.251C314.165 107.318 310.688 112.682 306.249 117.343L321.009 135.099H302.587ZM267.963 118.119C274.03 118.119 279.615 116.677 284.72 113.791L258.197 81.8307H276.73L295.707 104.58C298.148 101.473 300.035 97.996 301.366 94.1489C302.772 90.2278 303.475 86.1217 303.475 81.8307C303.475 75.0982 301.884 68.9946 298.703 63.5199C295.596 58.0451 291.342 53.6801 285.941 50.4248C280.614 47.1696 274.621 45.542 267.963 45.542C261.304 45.542 255.275 47.1696 249.874 50.4248C244.547 53.6801 240.293 58.0451 237.112 63.5199C234.005 68.9946 232.451 75.0982 232.451 81.8307C232.451 88.4892 234.005 94.5928 237.112 100.141C240.293 105.616 244.547 109.981 249.874 113.237C255.275 116.492 261.304 118.119 267.963 118.119Z" fill="#282828"/>
<path d="M80.4748 0.0197715C79.8818 0.00661368 79.2872 0 78.691 0C35.2311 0 0 35.1456 0 78.5C0 121.854 35.2311 157 78.691 157H79.9302V124.858H78.691C53.0257 124.858 32.2199 104.103 32.2199 78.5C32.2199 52.897 53.0257 32.1417 78.691 32.1417C79.2883 32.1417 79.8829 32.153 80.4748 32.1753V0.0197715Z" fill="#282828"/>
<path d="M80.4749 32.2622V0C122.899 0.949169 157 35.8392 157 78.7408V79.9811H124.94V78.7408C124.94 53.6506 105.19 33.2005 80.4749 32.2622Z" fill="#282828" fill-opacity="0.65"/>
<path d="M128.365 98.748H99.7295V155.525H128.365V98.748Z" fill="#282828" fill-opacity="0.65"/>
<path d="M156.506 98.748H128.365V155.525H156.506V98.748Z" fill="#282828"/>
</svg>
